<?xml version="1.0" standalone="no"?>
<!DOCTYPE svg PUBLIC "-//W3C//DTD SVG 20010904//EN"
 "http://www.w3.org/TR/2001/REC-SVG-20010904/DTD/svg10.dtd">
<svg version="1.0" xmlns="http://www.w3.org/2000/svg"
 width="1024.000000pt" height="1024.000000pt" viewBox="0 0 1024.000000 1024.000000"
 preserveAspectRatio="xMidYMid meet">
<metadata>
Created by potrace 1.14, written by Peter Selinger 2001-2017
</metadata>
<g transform="translate(0.000000,1024.000000) scale(0.100000,-0.100000)"
fill="#000000" stroke="none">
<path d="M5065 8471 c-27 -14 -53 -30 -57 -36 -4 -5 -8 -7 -8 -2 0 4 -27 -6
-60 -23 -34 -17 -65 -28 -70 -25 -6 4 -10 2 -10 -3 0 -9 -74 -44 -95 -46 -5
-1 -12 -4 -15 -7 -7 -9 -83 -42 -92 -41 -5 1 -8 -2 -8 -8 0 -5 -7 -10 -15 -10
-9 0 -30 -8 -48 -17 -18 -9 -34 -18 -37 -18 -9 -3 -54 -22 -122 -54 -36 -17
-71 -31 -77 -31 -6 0 -11 -4 -11 -10 0 -6 -3 -9 -7 -8 -8 2 -39 -11 -113 -45
-25 -12 -47 -22 -50 -23 -3 0 -18 -6 -33 -12 -16 -7 -33 -12 -38 -12 -5 0 -9
-4 -9 -8 0 -4 -21 -16 -48 -25 -26 -10 -69 -28 -96 -42 -27 -14 -55 -25 -63
-25 -7 0 -13 -5 -13 -11 0 -5 -4 -8 -9 -4 -5 3 -12 1 -16 -5 -3 -5 -24 -14
-45 -20 -22 -6 -40 -15 -40 -21 0 -6 -5 -7 -10 -4 -6 3 -17 -1 -26 -9 -8 -9
-22 -16 -30 -16 -8 0 -14 -5 -14 -11 0 -5 -4 -7 -10 -4 -5 3 -20 0 -32 -7 -13
-7 -25 -13 -28 -14 -3 0 -23 -9 -45 -19 -22 -10 -43 -18 -47 -17 -5 1 -8 -2
-8 -6 0 -5 -19 -15 -42 -23 -24 -7 -71 -28 -105 -47 -35 -18 -63 -30 -63 -27
0 3 -12 -1 -27 -9 -16 -8 -53 -26 -83 -39 -30 -14 -95 -44 -145 -67 -49 -24
-96 -42 -102 -41 -7 1 -13 -3 -13 -9 0 -5 -3 -9 -7 -8 -13 4 -176 -73 -181
-85 -2 -4 -8 -4 -13 -1 -6 3 -16 0 -24 -6 -8 -7 -15 -9 -15 -4 0 5 -4 5 -8 -1
-6 -9 -79 -48 -92 -49 -14 -2 -96 -41 -101 -49 -3 -5 -9 -7 -13 -6 -11 4 -96
-34 -96 -43 0 -4 -9 -5 -20 -3 -11 2 -20 0 -20 -4 0 -8 -82 -47 -110 -53 -8
-2 -17 -5 -20 -9 -7 -8 -83 -44 -95 -45 -16 -1 -89 -38 -97 -49 -4 -5 -8 -7
-8 -3 0 4 -39 -11 -87 -34 -49 -22 -107 -49 -130 -59 -24 -10 -64 -29 -90 -41
-27 -13 -50 -23 -53 -23 -19 -3 -50 -18 -50 -25 0 -4 -6 -7 -12 -7 -12 1 -44
-13 -185 -79 -28 -13 -57 -24 -62 -24 -6 0 -11 -4 -11 -10 0 -5 -3 -9 -8 -8
-10 2 -39 -9 -107 -42 -33 -16 -72 -32 -87 -36 -16 -3 -28 -10 -28 -16 0 -5
-4 -6 -10 -3 -5 3 -10 1 -10 -4 0 -6 -5 -11 -10 -11 -6 0 -27 -7 -48 -17 -20
-9 -39 -17 -42 -18 -31 -11 -94 -40 -131 -60 -26 -14 -54 -25 -63 -25 -9 0
-16 -5 -16 -12 0 -6 -3 -8 -7 -5 -3 4 -16 1 -28 -7 -12 -8 -40 -20 -63 -27
-23 -7 -42 -16 -42 -21 0 -5 -4 -6 -10 -3 -5 3 -10 2 -10 -3 0 -5 -19 -15 -42
-22 -24 -7 -46 -17 -49 -22 -3 -5 -12 -10 -20 -12 -8 -1 -24 -7 -36 -14 -12
-7 -29 -12 -37 -12 -9 0 -16 -4 -16 -10 0 -5 -3 -9 -7 -8 -5 0 -26 -7 -48 -17
-22 -9 -40 -16 -40 -14 0 2 -13 -5 -30 -14 -42 -24 -128 -61 -137 -59 -5 1 -8
-2 -8 -6 0 -9 -70 -37 -83 -34 -4 1 -7 -2 -7 -7 0 -5 -12 -12 -26 -15 -25 -7
-25 -8 -8 -21 10 -7 22 -11 26 -9 5 3 8 -2 8 -10 0 -10 9 -16 25 -16 15 0 39
-7 55 -15 17 -9 30 -12 30 -9 0 4 8 0 18 -9 9 -8 29 -19 45 -22 15 -4 27 -12
27 -18 0 -6 3 -7 7 -4 3 4 12 2 20 -4 7 -6 13 -9 13 -6 0 3 25 -8 56 -24 31
-16 61 -26 65 -23 5 3 9 0 9 -6 0 -6 4 -8 10 -5 5 3 10 1 10 -4 0 -6 7 -11 15
-11 8 0 15 -4 15 -8 0 -5 6 -9 13 -9 17 -1 41 -7 47 -13 9 -9 85 -44 93 -42 4
1 7 -3 7 -8 0 -6 7 -10 15 -10 17 0 87 -31 96 -43 3 -4 10 -7 15 -6 15 3 74
-22 74 -32 0 -5 9 -9 19 -9 11 0 26 -7 34 -15 8 -8 17 -12 20 -9 3 4 23 -3 44
-14 21 -12 60 -30 86 -41 32 -14 46 -25 41 -32 -4 -7 -7 -849 -7 -1872 l1
-1860 -27 -46 c-15 -25 -28 -49 -29 -54 -2 -9 -108 -227 -238 -492 -51 -104
-92 -191 -90 -192 2 -2 267 -2 590 -1 l586 3 -37 75 c-20 41 -37 77 -38 80 -5
18 -41 86 -48 88 -4 2 -5 8 -1 13 3 5 0 9 -5 9 -6 0 -10 3 -9 8 2 7 -33 83
-42 92 -9 9 -43 85 -47 103 -1 9 -14 34 -27 55 -12 20 -24 40 -24 45 -3 17
-56 122 -64 125 -4 2 -8 10 -8 18 0 7 -8 28 -18 46 -17 31 -18 117 -17 1803 0
1213 -3 1772 -10 1777 -16 12 18 10 54 -3 17 -6 31 -16 31 -22 0 -6 3 -7 7 -4
3 4 11 3 17 -2 6 -5 28 -14 48 -20 21 -7 38 -17 38 -22 0 -5 3 -8 8 -7 7 2 44
-13 101 -40 19 -10 39 -16 43 -15 4 2 8 -2 8 -7 0 -6 9 -10 20 -10 11 0 20 -4
20 -10 0 -5 7 -7 15 -4 8 4 15 1 15 -6 0 -6 5 -8 10 -5 6 3 10 1 10 -6 0 -7 3
-10 6 -7 3 3 41 -12 84 -33 44 -21 91 -41 104 -45 14 -3 25 -14 27 -27 2 -12
4 -662 3 -1444 0 -1002 3 -1423 10 -1425 6 -2 1350 -3 2986 -3 l2975 1 5 1444
c4 1155 8 1446 18 1448 7 1 35 13 64 27 28 13 55 22 59 19 5 -3 9 -2 9 3 0 8
89 53 100 51 3 -1 25 10 50 23 25 12 48 22 53 21 4 -1 7 3 7 8 0 6 7 10 15 10
18 0 88 32 97 45 4 6 8 7 8 2 0 -4 15 0 33 10 17 9 35 17 38 18 3 0 21 8 40
17 19 9 59 27 89 41 30 13 69 30 85 37 17 8 32 14 35 15 3 1 28 12 55 25 28
13 53 23 58 22 4 -1 7 2 7 6 0 4 17 14 38 20 20 7 61 24 90 37 28 14 76 36
105 49 28 13 77 35 107 49 47 22 103 46 120 52 3 1 25 11 50 23 25 12 51 22
58 22 6 0 12 5 12 12 0 6 3 8 6 5 4 -3 16 0 28 8 11 8 28 15 38 15 9 0 23 7
32 15 8 9 17 16 18 15 11 -1 68 26 68 33 0 4 4 6 9 3 5 -4 31 5 58 18 26 14
51 25 56 25 4 0 29 12 57 26 27 14 56 25 65 25 8 0 15 4 15 10 0 5 3 9 8 8 4
0 30 10 57 23 28 13 53 24 58 25 4 1 10 3 15 4 4 1 9 2 12 2 3 0 11 6 18 14
11 12 8 16 -15 25 -15 5 -60 26 -99 44 -90 43 -127 59 -136 57 -5 -1 -8 3 -8
8 0 5 -3 9 -7 8 -5 0 -25 6 -45 15 -21 10 -42 17 -48 17 -5 0 -10 5 -10 11 0
5 -4 8 -9 4 -5 -3 -12 -1 -16 5 -3 5 -24 14 -45 20 -22 6 -40 15 -40 21 0 6
-4 8 -9 4 -5 -3 -12 -1 -16 5 -4 6 -11 8 -16 5 -5 -4 -9 -2 -9 3 0 8 -15 16
-50 26 -3 1 -21 8 -40 17 -19 9 -73 33 -120 54 -120 52 -174 79 -178 88 -2 4
-7 5 -12 2 -5 -3 -28 5 -53 18 -40 22 -76 35 -94 35 -3 0 -9 4 -12 9 -8 11
-79 43 -96 43 -7 0 -15 3 -17 8 -1 4 -43 25 -93 47 -49 21 -91 43 -93 47 -2 4
-10 4 -18 1 -8 -3 -14 0 -14 6 0 6 -6 11 -14 11 -8 0 -31 9 -53 19 -71 37
-158 76 -168 77 -5 0 -26 9 -45 19 -19 11 -38 20 -42 21 -5 1 -10 3 -13 4 -3
1 -8 3 -12 4 -23 6 -63 30 -63 38 0 5 -4 7 -9 4 -4 -3 -34 7 -65 23 -31 16
-56 27 -56 25 0 -3 -11 3 -25 12 -14 9 -25 14 -25 10 0 -3 -25 8 -57 24 -31
16 -60 27 -65 24 -4 -3 -8 0 -8 6 0 7 -7 10 -15 6 -8 -3 -15 -2 -15 3 0 8 -81
51 -96 51 -5 0 -26 9 -47 20 -21 12 -63 30 -93 41 -30 11 -54 25 -54 30 0 6
-4 8 -8 5 -5 -3 -39 10 -77 29 -38 19 -72 35 -76 35 -3 0 -42 17 -85 37 -43
20 -81 38 -84 38 -3 1 -22 9 -42 18 -21 10 -41 17 -46 17 -5 0 -15 7 -22 15
-6 8 -15 14 -18 13 -8 -2 -43 12 -117 47 -80 37 -109 49 -117 47 -5 -1 -8 2
-8 8 0 5 -5 10 -10 10 -6 0 -27 7 -48 17 -20 9 -39 17 -42 18 -3 0 -19 9 -37
18 -18 9 -39 17 -48 17 -8 0 -15 4 -15 10 0 5 -7 7 -15 4 -8 -4 -15 -2 -15 4
0 5 -15 15 -32 22 -43 17 -127 54 -207 93 -35 17 -70 30 -77 30 -8 0 -14 4
-14 9 0 4 -6 8 -14 8 -7 0 -34 11 -60 25 -25 13 -50 25 -54 26 -4 1 -23 9 -42
19 -19 10 -39 18 -43 18 -10 1 -100 44 -107 51 -5 6 -19 10 -45 14 -5 1 -12 4
-15 7 -11 11 -66 33 -77 31 -7 -1 -13 3 -13 9 0 5 -4 10 -9 10 -5 0 -26 8 -47
17 -22 9 -42 16 -46 15 -5 -1 -8 3 -8 8 0 6 -3 9 -7 8 -10 -2 -86 34 -94 45
-3 4 -10 7 -15 6 -5 -1 -31 8 -59 21 -27 13 -52 24 -55 25 -3 0 -28 11 -57 24
-29 13 -55 22 -59 21 -4 -1 -10 2 -13 7 -8 11 -84 47 -93 45 -5 -1 -8 3 -8 9
0 6 -9 9 -20 6 -11 -3 -20 -1 -20 3 0 5 -10 12 -22 16 -13 4 -25 10 -28 15 -3
5 -15 10 -25 12 -38 8 -85 29 -85 39 0 5 -3 7 -8 4 -4 -2 -39 11 -77 30 -38
19 -69 33 -69 33 -1 -1 -23 -13 -51 -28z"/>
</g>
</svg>
