<svg id="SvgjsSvg1071" width="288" height="288" xmlns="http://www.w3.org/2000/svg" version="1.1" xmlns:xlink="http://www.w3.org/1999/xlink" xmlns:svgjs="http://svgjs.com/svgjs"><defs id="SvgjsDefs1072"></defs><g id="SvgjsG1073"><svg xmlns="http://www.w3.org/2000/svg" width="288" height="288" viewBox="0 0 16.933 16.933"><path fill="#527bd3" d="m 12.702326,8.200196 v 2.645834 c 0,1.026054 -1.889603,1.852083 -4.23678,1.852083 -2.347176,0 -4.236779,-0.826029 -4.236779,-1.852083 V 8.200196" class="color5299d3 svgShape"></path><path style="line-height:normal;font-variant-ligatures:normal;font-variant-position:normal;font-variant-caps:normal;font-variant-numeric:normal;font-variant-alternates:normal;font-feature-settings:normal;text-indent:0;text-align:start;text-decoration-line:none;text-decoration-style:solid;text-decoration-color:#000;text-transform:none;text-orientation:mixed;shape-padding:0;isolation:auto;mix-blend-mode:normal" fill="#354396" d="M 4.2286824,8.2000163 V 10.84585 c 0,1.026053 1.8897746,1.852083 4.2369507,1.852083 1.9726739,-1e-6 3.6171499,-0.584458 4.0932899,-1.379761 -0.752235,0.511923 -2.063076,0.850594 -3.5641232,0.850594 -2.3471762,0 -4.2369507,-0.826029 -4.2369507,-1.852083 V 9.039758 l 3.5899616,2.09858 c 0.07408,0.04314 0.1636337,0.04314 0.2377117,0 L 12.702584,8.7312499 V 8.2000163 c -2.8246339,0 -5.6492679,0 -8.4739016,0 z" color="#000" font-family="sans-serif" font-weight="400" overflow="visible" class="color3587cb svgShape"></path><path fill="#ffca28" d="M 1.598744,13.491863 H 3.175 l 0.529166,1.188738 H 1.058333 Z" class="colorffca28 svgShape"></path><rect width="1.588" height="3.44" x="1.588" y="10.052" fill="#ffca28" class="colorffca28 svgShape"></rect><path style="line-height:normal;font-variant-ligatures:normal;font-variant-position:normal;font-variant-caps:normal;font-variant-numeric:normal;font-variant-alternates:normal;font-feature-settings:normal;text-indent:0;text-align:start;text-decoration-line:none;text-decoration-style:solid;text-decoration-color:#000;text-transform:none;text-orientation:mixed;shape-padding:0;isolation:auto;mix-blend-mode:normal" fill="#ecb100" d="m 1.850533,10.05365 c -0.145617,0.0015 -0.261342,0.119115 -0.263033,0.2651 v 3.172933 H 2.1166666 V 10.31875 c 0.0017,-0.145985 0.1174161,-0.263629 0.2630331,-0.2651 z" color="#000" font-family="sans-serif" font-weight="400" overflow="visible" class="colorecb100 svgShape"></path><path fill="#527bd3" d="M 0.79372523,6.0854164 8.4666658,10.583338 16.139608,6.0854164 8.4666658,1.322912 Z" class="color5299d3 svgShape"></path><circle cx="8.467" cy="5.949" r=".529" fill="#ffca28" class="colorffca28 svgShape"></circle><path fill="#ecb100" d="M 1.5988688,13.491683 1.0583333,14.680757 H 1.5875 l 0.5405355,-1.189074 z" class="colorecb100 svgShape"></path><path style="line-height:normal;font-variant-ligatures:normal;font-variant-position:normal;font-variant-caps:normal;font-variant-numeric:normal;font-variant-alternates:normal;font-feature-settings:normal;text-indent:0;text-align:start;text-decoration-line:none;text-decoration-style:solid;text-decoration-color:#000;text-transform:none;text-orientation:mixed;shape-padding:0;isolation:auto;mix-blend-mode:normal" d="m 8.4552995,1.0586082 c -0.045688,0.00154 -0.090197,0.014896 -0.1291892,0.03876 L 0.6543339,5.8612286 C 0.48497326,5.9662489 0.48807702,6.2137227 0.66001814,6.3144618 L 2.134843,7.1790677 c -0.011339,0.029537 -0.01729,0.060869 -0.01757,0.092508 v 2.515781 H 1.5881141 C 1.4411885,9.7868005 1.3219406,9.9060538 1.3225009,10.052992 v 3.407777 l -0.48730199,1.07391 c -0.0280503,0.0434 -0.042781,0.09406 -0.0423741,0.145737 v 0.929723 c 0,0.353147 0.52967609,0.353147 0.52967609,0 v -0.664088 h 0.7947724 v 0.664088 c 0,0.356599 0.5291593,0.34935 0.5291593,0 v -0.664088 h 0.7932223 v 0.664088 c 0.00765,0.345061 0.5215039,0.345061 0.5291593,0 v -0.929723 c 3.704e-4,-0.04694 -0.011761,-0.09314 -0.03514,-0.133851 L 3.4396545,13.438547 V 10.052992 C 3.4402105,9.9068616 3.3222265,9.7879405 3.1761086,9.7873563 H 2.6464326 V 7.4808791 l 0.00206,-5.292e-4 1.3161803,0.7715821 v 2.594335 c 0,0.337747 0.1593286,0.649426 0.4066878,0.90595 0.2473592,0.256525 0.5844877,0.469187 0.9901068,0.646516 0.811238,0.354657 1.8985175,0.564863 3.1031266,0.564863 1.2046095,0 2.2944719,-0.210206 3.1057099,-0.564863 0.40562,-0.177329 0.742747,-0.389991 0.990107,-0.646516 0.247359,-0.256524 0.406171,-0.568203 0.406171,-0.90595 V 8.2529655 L 16.273314,6.3144496 C 16.445256,6.2137105 16.44836,5.966237 16.278998,5.8612164 L 8.605676,1.0973681 C 8.5605549,1.069698 8.508173,1.0561964 8.4552995,1.0586082 Z M 8.4666682,1.6343232 15.626855,6.0803516 8.4666682,10.277799 3.39263,7.3030997 7.7401079,6.2689834 c 0.1236343,0.2813531 0.4044859,0.4733887 0.7265603,0.4733887 0.4424709,0 0.7932222,-0.3580156 0.7932222,-0.7932877 0,-0.4352721 -0.3506781,-0.7927709 -0.7932222,-0.7927709 -0.3595023,0 -0.6650222,0.2362769 -0.7637671,0.5767484 L 2.7342812,6.9170504 1.3069982,6.0803516 Z m 0,4.0511933 c 0.1440898,0 0.2635459,0.1142983 0.2635462,0.2635679 -3e-7,0.1492696 -0.1204899,0.265635 -0.2635462,0.265635 -0.1430564,0 -0.2656131,-0.1163654 -0.2656131,-0.265635 0,-0.1492696 0.1215233,-0.2635679 0.2656131,-0.2635679 z M 4.4943561,8.5625408 8.3317945,10.812687 c 0.082647,0.04846 0.1850333,0.04846 0.2676802,0 L 12.43743,8.5630576 V 10.84628 c 0,0.175314 -0.07757,0.352056 -0.257862,0.539021 -0.180285,0.186963 -0.461993,0.371745 -0.82216,0.529203 -0.720337,0.314918 -1.7502721,0.519383 -2.8928067,0.519384 -1.1425346,0 -2.1719534,-0.204466 -2.8922898,-0.519384 C 5.2121435,11.757046 4.9325027,11.572264 4.7522181,11.385301 4.5719332,11.198336 4.4943561,11.021594 4.4943561,10.84628 Z M 1.8516602,10.316559 h 1.0583186 v 2.910616 H 1.8516602 Z m -0.082164,3.441281 h 1.2345329 l 0.2930013,0.659009 c -0.6148368,-0.0045 -1.2144002,0 -1.8282868,0 z" color="#000" font-family="sans-serif" font-weight="400" overflow="visible" fill="#000000" class="color000 svgShape"></path></svg></g></svg>